<svg xmlns="http://www.w3.org/2000/svg" width="178" height="162" viewBox="0 0 178 162"><g><g><path fill="#562b48" d="M90.816 1.962c2.283.584 4.453 1.478 6.58 2.479 16.857 8.459 21.302 20.512 22.904 26.462.627 2.02 1.06 4.08 1.278 6.18 1.393 11.975-.059 18.9-3.648 26.849-.757 1.644-5.034 8.009-6.104 9.212-1.737 1.96-3.666 3.718-5.699 5.363-2.604 2.105-5.348 3.996-8.295 5.587-1.645.888-3.335 1.663-5.125 2.212-.68.206-1.37.359-2.069.478-.18.03-.369.03-.56.045-.028-.181.116-.177.196-.216 1.521-.713 3.048-1.401 4.557-2.135 2.77-1.347 5.454-2.846 7.991-4.596a39.909 39.909 0 0 0 5.156-4.204c2.62-2.543 4.766-5.438 6.476-8.658 2.091-3.935 3.498-8.102 4.27-12.488.358-2.023.571-4.06.688-6.111.127-2.221.185-4.448-.057-6.656-.912-8.264-4.93-28.951-27.326-36.387C85.72 3.33 73.016.163 58.487 6.64c-1.685.75-3.274 1.702-4.884 2.6a27.434 27.434 0 0 0-4.597 3.18 18.69 18.69 0 0 0-2.124 2.143c-2.34 2.795-4.459 5.748-6.24 8.932a42.3 42.3 0 0 0-4.465 11.832c-.299 1.385-.59 2.77-.89 4.155-.074.328-.168.65-.255.973a.418.418 0 0 1-.158.242c0-.315-.017-.593.003-.87.462-6.692 2.44-12.901 5.96-18.615a49.206 49.206 0 0 1 4.823-6.584c2.798-3.208 6.08-5.827 9.757-7.958 4.484-2.601 9.241-4.487 14.338-5.503C78.95-.35 87.048.999 90.816 1.962z"/></g><g><path fill="#562b48" d="M31.96 141.01c-.645-1.614-1.46-3.146-2.301-4.663-1.44-2.591-2.913-5.165-4.37-7.748a102.83 102.83 0 0 1-.574-1.024c-.04-.079-.068-.167-.115-.281.226-.088.426-.044.622-.041.185.005.37.023.555.047 1.463.195 2.896.535 4.322.902 2.002.515 4 1.046 6.003 1.56 1.445.37 2.91.634 4.4.764 1.729.15 3.459.282 5.193.325 1.268.032 2.536.086 3.804.083a76.648 76.648 0 0 0 3.804-.118c.799-.043 1.598-.119 2.38-.31.055-.013.105-.037.188-.064.08-.312.119-.642.13-.976.064-1.958.114-3.917.07-5.877-.024-.858-.024-1.717-.057-2.574-.071-1.808-.15-3.616-.25-5.424-.031-.593-.131-1.185-.2-1.777a1.512 1.512 0 0 0-.186-.608c-.331.141-.573.376-.843.562-.294.201-.576.414-.863.623-.272.197-.542.399-.816.589-.27.191-.523.409-.871.597-.011-.137-.037-.222-.024-.302.125-.773.225-1.551.397-2.314.304-1.371.494-2.75.51-4.154.017-1.232.163-2.457.306-3.681.164-1.406.344-2.813.496-4.221.164-1.52.283-3.046.465-4.564.116-.98.312-1.95.467-2.926.127-.792.25-1.584.367-2.376.025-.166.02-.334.034-.536-.156-.143-.31-.309-.483-.442-.26-.196-.364-.437-.348-.767.039-.71.089-1.416.223-2.113.252-1.298.512-2.597.776-3.893.174-.861.288-1.729.362-2.602a6.187 6.187 0 0 0 0-1.028c-.131.018-.228.008-.302.048-.28.146-.565.29-.823.469-.401.274-.79.568-1.172.865a5.842 5.842 0 0 1-1.871.981c-.321.099-.636.214-.952.324a4.323 4.323 0 0 0-1.53.9c-.333.297-.69.576-1.061.82-1.056.686-1.923.658-2.951-.081a8.711 8.711 0 0 1-.812-.686c-.37-.342-.771-.588-1.302-.521-.334.041-.52-.137-.64-.425-.216-.52-.325-1.07-.43-1.619-.16-.843-.296-1.689-.447-2.533a7.53 7.53 0 0 0-.136-.599c-.164-.581-.485-1.042-1.016-1.35a6.652 6.652 0 0 1-.605-.399c-.195-.142-.375-.305-.538-.442-.006-.655.18-2.996.263-3.338.064-.004.142-.027.207-.011.418.094.838.182 1.25.301.666.195 1.065.655 1.233 1.324.04.162.069.328.108.49.045.181.08.365.135.543.138.46.389.847.78 1.129.428.304.855.608 1.292.891.539.352 1.146.329 1.732.196a6.997 6.997 0 0 0 1.369-.473c.643-.295 1.26-.643 1.887-.973.592-.313 1.176-.646 1.78-.944.94-.464 1.726-1.109 2.317-1.972.327-.475.616-.976.913-1.472.288-.48.56-.969.843-1.451a7.753 7.753 0 0 1 1.573-1.882c.269-.233.543-.457.804-.697.289-.265.582-.527.842-.818.653-.732.928-1.603.88-2.577 0-.033-.025-.065-.04-.097-.107-.053-.173.024-.241.082-.232.184-.454.388-.7.558-.652.454-1.185.39-1.721-.227-.593-.68-.818-1.458-.535-2.34.102-.318.232-.629.355-.941.06-.157.127-.311.194-.464.214-.488.122-.907-.272-1.264-.095-.085-.197-.168-.295-.253.096-.273.249-.461.369-.668.159-.272.33-.542.47-.825.13-.267.232-.55.168-.904-.378-.255-.78-.524-1.176-.792a4.791 4.791 0 0 1-.027-1.351c.022-.2.089-.401.177-.584.128-.269.364-.37.652-.284.195.059.386.144.56.248.22.137.42.305.634.458.1.075.21.146.32.224.197-.158.297-.361.416-.545.369-.561.726-1.131 1.1-1.687.348-.512.738-.986 1.214-1.386.39-.33.824-.574 1.328-.684a2.02 2.02 0 0 1 .808-.02c.282.49.52 1.014.749 1.542.062.141.035.33.019.495-.054.522-.194 1.025-.346 1.525-.12.393-.231.787-.336 1.183-.042.161-.055.327-.081.476.179.26.439.321.686.39.278.079.507.22.695.462-.12.27-.287.465-.598.533-.155.033-.295.14-.41.2-.063.232.06.369.114.523.15.422.32.835.456 1.26.08.247.127.508.153.766.069.771-.34 1.378-1.172 1.737-.022.13-.047.274-.07.421.156.238.375.235.593.148.154-.061.297-.157.432-.255a4.987 4.987 0 0 1 1.7-.817c.398-.106.788-.235 1.176-.365a3.261 3.261 0 0 0 1.612-1.157c.32-.436.639-.875.914-1.339.75-1.268 1.479-2.549 2.21-3.827.104-.178.19-.365.285-.548a4.602 4.602 0 0 0 .53-1.926c.048-1.049.272-2.068.546-3.076a27.95 27.95 0 0 0 .952-6.067c.023-.466.054-.931.089-1.396.009-.129.03-.259.082-.378.36-.881.756-1.746 1.276-2.546.38-.583.822-1.108 1.375-1.535.073-.057.154-.103.238-.147.028-.016.072-.009.13-.013.208.691.37 1.4.472 2.118.058.424.093.854.099 1.28.009.458-.174.845-.575 1.087-.847.509-1.17 1.326-1.3 2.239a14.03 14.03 0 0 0-.134 1.559c-.056 1.458.048 2.91.172 4.361.189 2.222.01 4.395-.78 6.498-.102.28-.184.568-.298.843-.495 1.182-.748 2.422-.873 3.688-.168 1.706-.843 3.195-1.882 4.535a5.426 5.426 0 0 1-1.328 1.192c-.53.349-1.072.676-1.61 1.014-.41.26-.806.537-1.148.887a2.37 2.37 0 0 0-.7 1.602c-.003.088.024.177.042.285.628.148 1.265.041 1.923.139-.037.104-.047.177-.084.23-.133.18-.26.369-.415.529-.597.617-.893 1.404-1.278 2.175.162.196.313.383.47.568.384.456.77.909 1.155 1.366.988 1.181 1.519 2.556 1.71 4.07.06.48.108.966.102 1.448a4.979 4.979 0 0 1-.16 1.158c-.27 1.09-.915 1.905-1.891 2.452a4.828 4.828 0 0 1-2.07.63c-.206.013-.408.023-.651.035-.043.101-.11.21-.141.33-.183.687-.107 1.375.055 2.049.158.652.34 1.299.555 1.934.666 1.96.782 3.973.676 6.02-.078 1.498-.391 2.957-.665 4.421a29.86 29.86 0 0 0-.512 4.78c-.043 1.83.017 3.656.196 5.477.085.872.15 1.747.223 2.622.004.035-.011.072-.021.139a.8.8 0 0 1-.568.264c-.225.007-.381.128-.534.311.112.629.274 1.258.53 1.858a26.7 26.7 0 0 0 .755 1.62c.265.529.396 1.082.433 1.666.06.95.159 1.898.197 2.847.046 1.099.059 2.201.058 3.301-.001 1.009-.006 2.015.072 3.02.073.952.245 1.886.495 2.805.023.089.066.173.109.269.095.01.186.032.276.031.785-.024 1.568-.04 2.348-.078.747-.038 1.489-.09 2.234-.154 1.06-.09 2.118-.193 3.174-.297.835-.082 1.669-.173 2.503-.262.93-.098 1.855-.203 2.782-.295.946-.093 1.894-.183 2.84-.263 1.283-.107 2.567-.205 3.85-.303.595-.047 1.19-.09 1.786-.126 1.47-.09 2.943-.171 4.413-.261 1.489-.093 2.98-.196 4.466-.29.78-.05 1.565-.093 2.346-.145.819-.056 1.637-.121 2.457-.183.538-.042 1.076-.086 1.616-.132 1.374-.122 2.748-.228 4.122-.375 1.389-.15 2.775-.342 4.162-.515a88.834 88.834 0 0 0 5.796-.938 97.485 97.485 0 0 0 7.232-1.695c1.205-.326 2.423-.603 3.63-.911 3.432-.873 6.838-1.834 10.242-2.811 4.01-1.148 8.018-2.311 12.056-3.358 3.157-.817 6.332-1.56 9.54-2.149 1.5-.276 3.018-.476 4.528-.721a32.615 32.615 0 0 0 1.699-.326c.198-.042.39-.126.579-.202.343-.137.6-.373.778-.692.109-.197.209-.397.31-.596a9.89 9.89 0 0 1 .927-1.464c.257-.345.587-.576.985-.7a19.884 19.884 0 0 1 1.562-.419c1.223-.268 2.468-.398 3.712-.497.297-.023.596-.003.93-.003-.025.122-.031.232-.08.32-.2.379-.391.765-.628 1.12-.861 1.289-1.708 2.584-2.616 3.837-1.058 1.466-2.172 2.892-3.268 4.334-1.295 1.701-2.808 3.183-4.434 4.568a50.916 50.916 0 0 1-11.807 7.519 426.601 426.601 0 0 0-6.682 3.138 72.817 72.817 0 0 0-5.756 3.104 37.608 37.608 0 0 0-2.942 1.939c-.182.134-.362.265-.55.388a1.431 1.431 0 0 1-1.01.235c-.665-.088-1.332-.177-1.998-.254a33.587 33.587 0 0 0-1.448-.138c-.707-.049-1.415-.105-2.123-.118a55.33 55.33 0 0 1-4.133-.264c-.925-.09-1.844-.255-2.767-.374-.5-.064-1.002-.124-1.504-.149a195.675 195.675 0 0 0-12.088-.235c-1.265.016-2.53.112-3.797.195-1.08.071-2.158.168-3.236.263-1.001.088-2.003.193-3.005.284a51.05 51.05 0 0 1-1.562.122c-2.237.146-4.474.203-6.712.111a54.939 54.939 0 0 1-4.571-.385 19.017 19.017 0 0 0-3.632-.127c-.854.056-1.708.164-2.56.247-.667.065-1.336.132-2.004.184-.708.054-1.418.087-2.124.141-2.014.15-4.026.08-6.04-.056-.854-.058-1.707-.163-2.561-.24-.335-.032-.67-.062-1.005-.067-1.548-.029-3.094-.024-4.642.075-1.918.124-3.836.206-5.763.144-.26-.009-.524-.003-.781-.036-.64-.086-1.268-.012-1.894.095-.99.171-1.976.371-2.966.558a26.46 26.46 0 0 1-4.445.469 21.24 21.24 0 0 1-4.01-.329 5.561 5.561 0 0 0-2.81.231c-.474.163-.947.334-1.416.519-1.261.499-2.57.765-3.916.853-.874.057-1.751.08-2.626.12-.336.014-.67.035-1.006.056-.225.01-.445.02-.667.032-.053-.084-.101-.14-.126-.209zm33.084-11.346c-.071-.46-.152-.92-.258-1.374-.311-1.362-.781-2.678-1.206-4.009-.256-.797-.518-1.595-.73-2.404-.346-1.34-.461-2.714-.564-4.09-.087-1.171-.156-2.343-.346-3.503-.07-.417-.106-.845-.317-1.26-.751-.05-1.482-.03-2.201.188-.022.078-.047.129-.047.182.003.148-.003.299.03.444.097.436.196.872.324 1.3.193.664.334 1.335.408 2.022.12 1.097.13 2.195.09 3.296-.038 1.098-.071 2.199-.334 3.273-.208.85-.446 1.693-.696 2.53-.325 1.093-.58 2.198-.698 3.331-.027.273-.073.55-.003.82.078.024.129.051.182.051 2.032-.032 4.064-.068 6.094-.103.07-.002.143-.025.275-.047 0-.243.025-.451-.003-.647z"/></g><g><path fill="#562b48" d="M71.308 145.387c-.086.092-.134.17-.204.214a1.985 1.985 0 0 1-1.007.303c-1.2.053-2.358.336-3.508.656-2.027.564-4.048 1.15-6.07 1.73a2.319 2.319 0 0 0-.464.186c-.221.12-.246.327-.057.501.122.113.26.216.407.293.263.14.53.275.808.38.906.338 1.817.662 2.728.996.33.12.665.247.99.381.212.087.208.096.425.365-.057.042-.105.105-.17.124-.158.05-.322.096-.488.11-.541.048-1.078.081-1.62.115-.503.035-1.004.05-1.505.098a2.75 2.75 0 0 1-1.368-.186c-.242-.1-.49-.183-.726-.289-1.018-.448-2.088-.685-3.181-.826a29.578 29.578 0 0 0-2.34-.197c-.501-.024-1.004.028-1.51.038-.214.004-.448.082-.665-.127.044-.085.072-.196.142-.267a5.77 5.77 0 0 1 .546-.475c.387-.293.783-.574 1.17-.864.162-.123.323-.257.468-.399.057-.059.11-.165.098-.238-.02-.127-.15-.159-.26-.159-.264 0-.525.01-.784.021-.354.016-.707.057-1.061.057-.791.001-1.556-.139-2.278-.477-.662-.312-1.377-.456-2.084-.618-.656-.152-1.308-.289-1.96-.45a2.717 2.717 0 0 1-.617-.25c-.201-.107-.208-.316-.018-.455.16-.12.34-.23.528-.303a29.03 29.03 0 0 1 1.788-.64c1.567-.484 3.162-.87 4.787-1.098.94-.13 1.89-.234 2.838-.247 1.642-.023 3.28.028 4.92.051.692.01 1.383.02 2.073.044.258.01.516.061.775.093.349.045.637.193.854.477.269.353.652.495 1.064.55a36.18 36.18 0 0 0 2 .215c1.15.092 2.306.154 3.458.244.278.022.55.093.82.16.083.02.149.092.258.163z"/></g><g><path fill="#562b48" d="M38.32 77.172c.296.248.56.532.848.814-.122.243-.29.415-.442.598-2.863 3.514-5.715 7.039-8.6 10.535-8.56 10.374-17.139 20.736-25.704 31.108a123.838 123.838 0 0 1-3.842 4.446 1.579 1.579 0 0 1-.468.37c.037-.078.071-.16.115-.234 1.238-1.978 2.535-3.914 3.952-5.768.78-1.022 1.638-1.984 2.446-2.988 3.61-4.494 7.22-8.988 10.816-13.493 4.6-5.758 9.175-11.534 13.86-17.222 2.145-2.606 4.312-5.198 6.551-7.728.133-.148.238-.33.467-.438z"/></g><g><path fill="#562b48" d="M58.344 157.162c-.198-.034-.4-.064-.602-.1a.828.828 0 0 1-.521-.301c-.203-.271-.482-.396-.81-.44-.22-.03-.442-.067-.664-.096a1.99 1.99 0 0 1-.788-.264.558.558 0 0 1-.29-.453 3.315 3.315 0 0 1-.003-.446c.016-.33.186-.562.484-.693.135-.06.277-.111.422-.141.707-.153 1.416-.323 2.13-.44a19.954 19.954 0 0 1 1.945-.214c1.356-.084 2.715-.154 4.075-.204.839-.03 1.68-.01 2.516-.01.057 0 .126-.008.163.019.072.049.166.114.179.184a.283.283 0 0 1-.084.245c-.095.083-.224.128-.341.179-.704.3-1.415.582-2.11.898-.625.288-1.24.599-1.848.924-.252.136-.503.228-.792.21-.093-.005-.186 0-.28-.003a1.746 1.746 0 0 0-1.146.369c-.207.156-.413.319-.63.466-.3.202-.627.328-1.005.31z"/></g><g><path fill="#562b48" d="M92.888 21.182c.098.19.037.29-.021.38-.237.356-.454.73-.728 1.059-.678.817-1.356 1.637-2.085 2.41a242.008 242.008 0 0 1-4.5 4.674c-2.366 2.379-4.762 4.73-7.144 7.093-.117.114-.248.216-.396.346a5.25 5.25 0 0 1-.416-1.101c.073-.23.242-.358.38-.504 1.82-1.895 3.632-3.804 5.474-5.678 2.18-2.222 4.406-4.404 6.732-6.474.696-.62 1.423-1.204 2.139-1.801.169-.14.359-.258.565-.404z"/></g><g><path fill="#562b48" d="M52.95 60.52c.402.103.492.321.482.613-.014.354-.155.637-.393.897-1.134 1.24-2.255 2.488-3.381 3.732-1.74 1.924-3.474 3.849-5.22 5.766-.286.315-.596.613-.917.893a1.481 1.481 0 0 1-.538.284c-.327.092-.56-.151-.461-.478.055-.193.154-.38.262-.551.098-.156.232-.291.357-.428 3.145-3.44 6.293-6.88 9.44-10.318.126-.137.247-.275.369-.41z"/></g><g><path fill="#562b48" d="M72.903 40.955c.263.917.071 1.814-.53 2.466-.836.906-1.68 1.802-2.517 2.703-1.765 1.9-3.526 3.804-5.292 5.703-.099.107-.205.207-.346.35-.165-.478-.258-.879.084-1.28.731-.847 1.435-1.718 2.17-2.56 1.428-1.628 2.877-3.235 4.303-4.86.641-.73 1.243-1.49 1.865-2.236.077-.094.164-.18.263-.286z"/></g><g><path fill="#562b48" d="M57.537 161.744c-.824.01-1.638-.052-2.44-.25a1.302 1.302 0 0 1-.79-.58.928.928 0 0 1-.104-.255c-.043-.177.07-.311.238-.278.147.03.296.065.426.134.358.188.734.229 1.135.212 1.694-.074 3.39-.15 5.075-.356 1.275-.153 2.54-.373 3.772-.756a2.04 2.04 0 0 1 .49-.087c.052-.004.128.069.162.125.02.034-.007.123-.038.15a2.867 2.867 0 0 1-.412.284c-.988.54-2.034.929-3.135 1.154-1.44.296-2.9.489-4.379.503z"/></g><g><path fill="#562b48" d="M58.652 152.8c.303-.08.606-.164.91-.24 1.088-.273 2.2-.358 3.316-.434.666-.046 1.336-.076 2.005-.106.242-.01.483-.003.722-.003.041.09-.004.137-.079.168-.77.33-1.556.621-2.41.647-1.359.042-2.715.081-4.074.12-.12.001-.246-.02-.37-.03-.006-.04-.015-.08-.02-.123z"/></g></g></svg>