<svg xmlns="http://www.w3.org/2000/svg" width="39" height="38" viewBox="0 0 39 38"><g><g><path fill="#fff" d="M.648 5.334C.672 1.97 2.487.089 5.879.07 14.998.023 24.114.025 33.23.069c3.507.015 5.318 1.88 5.326 5.374.022 9.049.023 18.099 0 27.15-.008 3.487-1.823 5.35-5.331 5.367-9.118.042-18.236.045-27.353-.004-3.39-.017-5.2-1.902-5.224-5.27C.618 28.063.64 23.436.64 18.81c0-4.492-.024-8.984.008-13.476zm30.569 10.902c.505 8.876-3.908 14.417-11.435 14.492-3.391.035-6.312-1.136-8.675-3.543-2.993-3.048-3.732-6.787-2.927-10.906H4.793c0 5.044.044 9.926-.02 14.808-.026 1.937.8 2.558 2.672 2.542a1429.62 1429.62 0 0 1 24.328.004c1.974.019 2.58-.784 2.552-2.635-.073-4.422-.019-8.846-.033-13.27 0-.502-.121-1.002-.184-1.492zm-3.97 2.62c-.039-4.01-3.433-7.27-7.588-7.285-4.219-.017-7.709 3.379-7.648 7.442.06 4.016 3.46 7.264 7.605 7.268 4.245.005 7.67-3.328 7.631-7.425zm7.03-10.684c.005-3.813-.137-3.965-3.729-3.967-3.784-.002-4.009.207-4.01 3.717 0 3.68.156 3.838 3.857 3.838 3.732 0 3.875-.132 3.881-3.588z"/></g></g></svg>