<svg xmlns="http://www.w3.org/2000/svg" width="37" height="22" viewBox="0 0 37 22"><g><g><path fill="#fff" d="M.58 1.608c2.292 0 4.46-.117 6.6.081.55.052 1.1 1.042 1.491 1.697 1.201 2.006 2.266 4.095 3.518 6.066.332.522 1.15.736 1.745 1.092.27-.575.73-1.133.774-1.724.108-1.462.213-2.972-.042-4.398-.176-.978-.957-1.848-1.62-3.04.424-.139 1.111-.523 1.821-.568C16.47.712 18.083.807 19.69.766c1.357-.033 1.971.615 1.977 1.932.008 1.876-.05 3.758.067 5.627.047.738.487 1.452.747 2.178.62-.413 1.445-.69 1.815-1.262 1.267-1.956 2.482-3.964 3.505-6.057.62-1.27 1.385-1.846 2.78-1.78 1.537.071 3.082-.013 4.622.044 1.387.05 2.106.703 1.26 2.058-1.45 2.321-2.92 4.643-4.557 6.833-1.159 1.551-1.05 2.65.353 3.958a33.677 33.677 0 0 1 4.008 4.473c1.084 1.46.552 2.383-1.244 2.447-1.405.051-2.858.218-4.209-.06-1.365-.28-2.693-.934-3.914-1.639-.719-.415-1.13-1.332-1.805-1.864-.585-.463-1.468-1.095-1.997-.93-.533.164-1.103 1.21-1.115 1.88-.04 2.305-1.262 2.736-3.259 2.647-3.899-.178-7.092-1.662-9.697-4.568C5.397 12.63 3.121 7.781.82 2.943.685 2.662.701 2.31.58 1.607z"/></g></g></svg>