<svg xmlns="http://www.w3.org/2000/svg" width="1630" height="731" viewBox="0 0 1630 731"><g><g><path fill="#fbfbc3" d="M3380.767 432.584c0 238.554-903.682 431.953-2018.427 431.953-1114.747 0-2018.428-193.399-2018.428-431.953 0-238.554 903.68-431.94 2018.428-431.94 1114.745 0 2018.427 193.386 2018.427 431.94z"/></g><g><path fill="#e4e1ae" d="M.028 138.44v-37.943c185.508-32.242 388.886-56.133 617.755-73.304C852.95 9.549 1103.286.603 1361.834.603c89.928 0 180.457 1.132 269.068 3.368l-1.202 44.606c-88.212-2.224-178.335-3.353-267.866-3.353-512.23 0-984.056 27.56-1361.806 93.216z"/></g></g></svg>